solid OpenSCAD_Model
  facet normal 0 0 -1
    outer loop
      vertex 20.1 -20.1 0
      vertex 6 -20.1 0
      vertex 20.1 20.1 0
    endloop
  endfacet
  facet normal -0 0 -1
    outer loop
      vertex 20.1 20.1 0
      vertex 6 -20.1 0
      vertex -20.1 20.1 0
    endloop
  endfacet
  facet normal 0 0 -1
    outer loop
      vertex -20.1 20.1 0
      vertex 6 -20.1 0
      vertex -6 -20.1 0
    endloop
  endfacet
  facet normal -0 -0 -1
    outer loop
      vertex 6 -20.1 0
      vertex 6 -28.6 0
      vertex -6 -20.1 0
    endloop
  endfacet
  facet normal 0 0 -1
    outer loop
      vertex -6 -20.1 0
      vertex 6 -28.6 0
      vertex -6 -28.6 0
    endloop
  endfacet
  facet normal 0 0 -1
    outer loop
      vertex -20.1 20.1 0
      vertex -6 -20.1 0
      vertex -20.1 -20.1 0
    endloop
  endfacet
  facet normal 0 0 1
    outer loop
      vertex 20.1 20.1 0.6
      vertex 6 -20.1 0.6
      vertex 20.1 -20.1 0.6
    endloop
  endfacet
  facet normal -0 0 1
    outer loop
      vertex -20.1 20.1 0.6
      vertex 6 -20.1 0.6
      vertex 20.1 20.1 0.6
    endloop
  endfacet
  facet normal 0 -0 1
    outer loop
      vertex -6 -20.1 0.6
      vertex 6 -20.1 0.6
      vertex -20.1 20.1 0.6
    endloop
  endfacet
  facet normal -0 0 1
    outer loop
      vertex -6 -20.1 0.6
      vertex 6 -28.6 0.6
      vertex 6 -20.1 0.6
    endloop
  endfacet
  facet normal 0 0 1
    outer loop
      vertex -6 -28.6 0.6
      vertex 6 -28.6 0.6
      vertex -6 -20.1 0.6
    endloop
  endfacet
  facet normal 0 0 1
    outer loop
      vertex -20.1 -20.1 0.6
      vertex -6 -20.1 0.6
      vertex -20.1 20.1 0.6
    endloop
  endfacet
  facet normal 0 -1 0
    outer loop
      vertex 20.1 -20.1 0
      vertex 6 -20.1 0.6
      vertex 6 -20.1 0
    endloop
  endfacet
  facet normal 0 -1 0
    outer loop
      vertex 20.1 -20.1 0
      vertex 20.1 -20.1 0.6
      vertex 6 -20.1 0.6
    endloop
  endfacet
  facet normal 1 0 0
    outer loop
      vertex 20.1 20.1 0
      vertex 20.1 -20.1 0.6
      vertex 20.1 -20.1 0
    endloop
  endfacet
  facet normal 1 0 -0
    outer loop
      vertex 20.1 20.1 0
      vertex 20.1 20.1 0.6
      vertex 20.1 -20.1 0.6
    endloop
  endfacet
  facet normal 0 1 0
    outer loop
      vertex -20.1 20.1 0
      vertex 20.1 20.1 0.6
      vertex 20.1 20.1 0
    endloop
  endfacet
  facet normal 0 1 0
    outer loop
      vertex -20.1 20.1 0
      vertex -20.1 20.1 0.6
      vertex 20.1 20.1 0.6
    endloop
  endfacet
  facet normal -1 0 0
    outer loop
      vertex -20.1 -20.1 0
      vertex -20.1 20.1 0.6
      vertex -20.1 20.1 0
    endloop
  endfacet
  facet normal -1 0 0
    outer loop
      vertex -20.1 -20.1 0
      vertex -20.1 -20.1 0.6
      vertex -20.1 20.1 0.6
    endloop
  endfacet
  facet normal 0 -1 0
    outer loop
      vertex -6 -20.1 0
      vertex -20.1 -20.1 0.6
      vertex -20.1 -20.1 0
    endloop
  endfacet
  facet normal 0 -1 0
    outer loop
      vertex -6 -20.1 0
      vertex -6 -20.1 0.6
      vertex -20.1 -20.1 0.6
    endloop
  endfacet
  facet normal -1 0 0
    outer loop
      vertex -6 -28.6 0
      vertex -6 -20.1 0.6
      vertex -6 -20.1 0
    endloop
  endfacet
  facet normal -1 0 0
    outer loop
      vertex -6 -28.6 0
      vertex -6 -28.6 0.6
      vertex -6 -20.1 0.6
    endloop
  endfacet
  facet normal 0 -1 0
    outer loop
      vertex 6 -28.6 0
      vertex -6 -28.6 0.6
      vertex -6 -28.6 0
    endloop
  endfacet
  facet normal 0 -1 0
    outer loop
      vertex 6 -28.6 0
      vertex 6 -28.6 0.6
      vertex -6 -28.6 0.6
    endloop
  endfacet
  facet normal 1 0 0
    outer loop
      vertex 6 -20.1 0
      vertex 6 -28.6 0.6
      vertex 6 -28.6 0
    endloop
  endfacet
  facet normal 1 0 -0
    outer loop
      vertex 6 -20.1 0
      vertex 6 -20.1 0.6
      vertex 6 -28.6 0.6
    endloop
  endfacet
endsolid OpenSCAD_Model
