solid OpenSCAD_Model
  facet normal 0 0 -1
    outer loop
      vertex 80.1 -80.1 0
      vertex -80.1 -80.1 0
      vertex -80.1 80.1 0
    endloop
  endfacet
  facet normal 0 0 -1
    outer loop
      vertex 80.1 -80.1 0
      vertex -80.1 80.1 0
      vertex 80.1 80.1 0
    endloop
  endfacet
  facet normal 0 0 1
    outer loop
      vertex -80.1 80.1 0.6
      vertex -80.1 -80.1 0.6
      vertex 80.1 -80.1 0.6
    endloop
  endfacet
  facet normal 0 0 1
    outer loop
      vertex 80.1 80.1 0.6
      vertex -80.1 80.1 0.6
      vertex 80.1 -80.1 0.6
    endloop
  endfacet
  facet normal 0 -1 0
    outer loop
      vertex 80.1 -80.1 0
      vertex -80.1 -80.1 0.6
      vertex -80.1 -80.1 0
    endloop
  endfacet
  facet normal 0 -1 0
    outer loop
      vertex 80.1 -80.1 0
      vertex 80.1 -80.1 0.6
      vertex -80.1 -80.1 0.6
    endloop
  endfacet
  facet normal 1 0 0
    outer loop
      vertex 80.1 80.1 0
      vertex 80.1 -80.1 0.6
      vertex 80.1 -80.1 0
    endloop
  endfacet
  facet normal 1 0 -0
    outer loop
      vertex 80.1 80.1 0
      vertex 80.1 80.1 0.6
      vertex 80.1 -80.1 0.6
    endloop
  endfacet
  facet normal 0 1 0
    outer loop
      vertex -80.1 80.1 0
      vertex 80.1 80.1 0.6
      vertex 80.1 80.1 0
    endloop
  endfacet
  facet normal 0 1 0
    outer loop
      vertex -80.1 80.1 0
      vertex -80.1 80.1 0.6
      vertex 80.1 80.1 0.6
    endloop
  endfacet
  facet normal -1 0 0
    outer loop
      vertex -80.1 -80.1 0
      vertex -80.1 80.1 0.6
      vertex -80.1 80.1 0
    endloop
  endfacet
  facet normal -1 0 0
    outer loop
      vertex -80.1 -80.1 0
      vertex -80.1 -80.1 0.6
      vertex -80.1 80.1 0.6
    endloop
  endfacet
endsolid OpenSCAD_Model
