ISO-10303-21;
HEADER;
FILE_DESCRIPTION(('FreeCAD Model'),'2;1');
FILE_NAME('Open CASCADE Shape Model','2026-07-13T22:29:17',('Author'),(
    ''),'Open CASCADE STEP processor 7.8','FreeCAD','Unknown');
FILE_SCHEMA(('AUTOMOTIVE_DESIGN { 1 0 10303 214 1 1 1 1 }'));
ENDSEC;
DATA;
#1 = APPLICATION_PROTOCOL_DEFINITION('international standard',
  'automotive_design',2000,#2);
#2 = APPLICATION_CONTEXT(
  'core data for automotive mechanical design processes');
#3 = SHAPE_DEFINITION_REPRESENTATION(#4,#10);
#4 = PRODUCT_DEFINITION_SHAPE('','',#5);
#5 = PRODUCT_DEFINITION('design','',#6,#9);
#6 = PRODUCT_DEFINITION_FORMATION('','',#7);
#7 = PRODUCT('stand_feet','stand_feet','',(#8));
#8 = PRODUCT_CONTEXT('',#2,'mechanical');
#9 = PRODUCT_DEFINITION_CONTEXT('part definition',#2,'design');
#10 = SHAPE_REPRESENTATION('',(#11,#15,#567),#1119);
#11 = AXIS2_PLACEMENT_3D('',#12,#13,#14);
#12 = CARTESIAN_POINT('',(0.,0.,0.));
#13 = DIRECTION('',(0.,0.,1.));
#14 = DIRECTION('',(1.,0.,-0.));
#15 = MANIFOLD_SOLID_BREP('',#16);
#16 = CLOSED_SHELL('',(#17,#57,#88,#130,#235,#340,#357,#374,#399,#419,
    #436,#453,#470,#487,#504,#521,#538,#555));
#17 = ADVANCED_FACE('',(#18),#52,.F.);
#18 = FACE_BOUND('',#19,.F.);
#19 = EDGE_LOOP('',(#20,#30,#38,#46));
#20 = ORIENTED_EDGE('',*,*,#21,.T.);
#21 = EDGE_CURVE('',#22,#24,#26,.T.);
#22 = VERTEX_POINT('',#23);
#23 = CARTESIAN_POINT('',(-88.,104.,3.));
#24 = VERTEX_POINT('',#25);
#25 = CARTESIAN_POINT('',(-64.,104.,3.));
#26 = LINE('',#27,#28);
#27 = CARTESIAN_POINT('',(-88.,104.,3.));
#28 = VECTOR('',#29,1.);
#29 = DIRECTION('',(1.,0.,0.));
#30 = ORIENTED_EDGE('',*,*,#31,.T.);
#31 = EDGE_CURVE('',#24,#32,#34,.T.);
#32 = VERTEX_POINT('',#33);
#33 = CARTESIAN_POINT('',(-64.,72.4795,3.));
#34 = LINE('',#35,#36);
#35 = CARTESIAN_POINT('',(-64.,104.,3.));
#36 = VECTOR('',#37,1.);
#37 = DIRECTION('',(0.,-1.,0.));
#38 = ORIENTED_EDGE('',*,*,#39,.F.);
#39 = EDGE_CURVE('',#40,#32,#42,.T.);
#40 = VERTEX_POINT('',#41);
#41 = CARTESIAN_POINT('',(-88.,72.4795,3.));
#42 = LINE('',#43,#44);
#43 = CARTESIAN_POINT('',(-88.,72.4795,3.));
#44 = VECTOR('',#45,1.);
#45 = DIRECTION('',(1.,0.,0.));
#46 = ORIENTED_EDGE('',*,*,#47,.F.);
#47 = EDGE_CURVE('',#22,#40,#48,.T.);
#48 = LINE('',#49,#50);
#49 = CARTESIAN_POINT('',(-88.,104.,3.));
#50 = VECTOR('',#51,1.);
#51 = DIRECTION('',(0.,-1.,0.));
#52 = PLANE('',#53);
#53 = AXIS2_PLACEMENT_3D('',#54,#55,#56);
#54 = CARTESIAN_POINT('',(-88.,104.,3.));
#55 = DIRECTION('',(0.,0.,-1.));
#56 = DIRECTION('',(0.,-1.,0.));
#57 = ADVANCED_FACE('',(#58),#83,.F.);
#58 = FACE_BOUND('',#59,.F.);
#59 = EDGE_LOOP('',(#60,#70,#76,#77));
#60 = ORIENTED_EDGE('',*,*,#61,.T.);
#61 = EDGE_CURVE('',#62,#64,#66,.T.);
#62 = VERTEX_POINT('',#63);
#63 = CARTESIAN_POINT('',(-88.,104.,-1.));
#64 = VERTEX_POINT('',#65);
#65 = CARTESIAN_POINT('',(-64.,104.,-1.));
#66 = LINE('',#67,#68);
#67 = CARTESIAN_POINT('',(-88.,104.,-1.));
#68 = VECTOR('',#69,1.);
#69 = DIRECTION('',(1.,0.,0.));
#70 = ORIENTED_EDGE('',*,*,#71,.T.);
#71 = EDGE_CURVE('',#64,#24,#72,.T.);
#72 = LINE('',#73,#74);
#73 = CARTESIAN_POINT('',(-64.,104.,-1.));
#74 = VECTOR('',#75,1.);
#75 = DIRECTION('',(0.,0.,1.));
#76 = ORIENTED_EDGE('',*,*,#21,.F.);
#77 = ORIENTED_EDGE('',*,*,#78,.F.);
#78 = EDGE_CURVE('',#62,#22,#79,.T.);
#79 = LINE('',#80,#81);
#80 = CARTESIAN_POINT('',(-88.,104.,-1.));
#81 = VECTOR('',#82,1.);
#82 = DIRECTION('',(0.,0.,1.));
#83 = PLANE('',#84);
#84 = AXIS2_PLACEMENT_3D('',#85,#86,#87);
#85 = CARTESIAN_POINT('',(-88.,104.,-1.));
#86 = DIRECTION('',(0.,-1.,0.));
#87 = DIRECTION('',(0.,0.,1.));
#88 = ADVANCED_FACE('',(#89,#114),#125,.F.);
#89 = FACE_BOUND('',#90,.F.);
#90 = EDGE_LOOP('',(#91,#92,#100,#108));
#91 = ORIENTED_EDGE('',*,*,#39,.T.);
#92 = ORIENTED_EDGE('',*,*,#93,.T.);
#93 = EDGE_CURVE('',#32,#94,#96,.T.);
#94 = VERTEX_POINT('',#95);
#95 = CARTESIAN_POINT('',(-64.,79.0569,33.9442));
#96 = LINE('',#97,#98);
#97 = CARTESIAN_POINT('',(-64.,72.4795,3.));
#98 = VECTOR('',#99,1.);
#99 = DIRECTION('',(0.,0.207911909914,0.978147554163));
#100 = ORIENTED_EDGE('',*,*,#101,.F.);
#101 = EDGE_CURVE('',#102,#94,#104,.T.);
#102 = VERTEX_POINT('',#103);
#103 = CARTESIAN_POINT('',(-88.,79.0569,33.9442));
#104 = LINE('',#105,#106);
#105 = CARTESIAN_POINT('',(-88.,79.0569,33.9442));
#106 = VECTOR('',#107,1.);
#107 = DIRECTION('',(1.,0.,0.));
#108 = ORIENTED_EDGE('',*,*,#109,.F.);
#109 = EDGE_CURVE('',#40,#102,#110,.T.);
#110 = LINE('',#111,#112);
#111 = CARTESIAN_POINT('',(-88.,72.4795,3.));
#112 = VECTOR('',#113,1.);
#113 = DIRECTION('',(0.,0.207911909914,0.978147554163));
#114 = FACE_BOUND('',#115,.F.);
#115 = EDGE_LOOP('',(#116));
#116 = ORIENTED_EDGE('',*,*,#117,.T.);
#117 = EDGE_CURVE('',#118,#118,#120,.T.);
#118 = VERTEX_POINT('',#119);
#119 = CARTESIAN_POINT('',(-85.2,73.916770856792,9.76182030084));
#120 = CIRCLE('',#121,1.7);
#121 = AXIS2_PLACEMENT_3D('',#122,#123,#124);
#122 = CARTESIAN_POINT('',(-83.5,73.916770856792,9.76182030084));
#123 = DIRECTION('',(0.,0.978147555115,-0.207911905437));
#124 = DIRECTION('',(-1.,0.,0.));
#125 = PLANE('',#126);
#126 = AXIS2_PLACEMENT_3D('',#127,#128,#129);
#127 = CARTESIAN_POINT('',(-88.,72.4795,3.));
#128 = DIRECTION('',(0.,-0.978147554163,0.207911909914));
#129 = DIRECTION('',(0.,0.207911909914,0.978147554163));
#130 = ADVANCED_FACE('',(#131),#230,.F.);
#131 = FACE_BOUND('',#132,.F.);
#132 = EDGE_LOOP('',(#133,#134,#135,#143,#151,#159,#167,#175,#183,#191,
    #199,#207,#215,#223,#229));
#133 = ORIENTED_EDGE('',*,*,#47,.T.);
#134 = ORIENTED_EDGE('',*,*,#109,.T.);
#135 = ORIENTED_EDGE('',*,*,#136,.T.);
#136 = EDGE_CURVE('',#102,#137,#139,.T.);
#137 = VERTEX_POINT('',#138);
#138 = CARTESIAN_POINT('',(-88.,76.1225,34.5679));
#139 = LINE('',#140,#141);
#140 = CARTESIAN_POINT('',(-88.,79.0569,33.9442));
#141 = VECTOR('',#142,1.);
#142 = DIRECTION('',(0.,-0.978149361529,0.207903406756));
#143 = ORIENTED_EDGE('',*,*,#144,.T.);
#144 = EDGE_CURVE('',#137,#145,#147,.T.);
#145 = VERTEX_POINT('',#146);
#146 = CARTESIAN_POINT('',(-88.,69.5187,3.5));
#147 = LINE('',#148,#149);
#148 = CARTESIAN_POINT('',(-88.,76.1225,34.5679));
#149 = VECTOR('',#150,1.);
#150 = DIRECTION('',(0.,-0.207915124791,-0.978146870814));
#151 = ORIENTED_EDGE('',*,*,#152,.T.);
#152 = EDGE_CURVE('',#145,#153,#155,.T.);
#153 = VERTEX_POINT('',#154);
#154 = CARTESIAN_POINT('',(-88.,69.5188,3.49998));
#155 = LINE('',#156,#157);
#156 = CARTESIAN_POINT('',(-88.,69.5187,3.5));
#157 = VECTOR('',#158,1.);
#158 = DIRECTION('',(0.,0.980580675692,-0.196116135133));
#159 = ORIENTED_EDGE('',*,*,#160,.T.);
#160 = EDGE_CURVE('',#153,#161,#163,.T.);
#161 = VERTEX_POINT('',#162);
#162 = CARTESIAN_POINT('',(-88.,69.1691,1.85472));
#163 = LINE('',#164,#165);
#164 = CARTESIAN_POINT('',(-88.,69.5188,3.49998));
#165 = VECTOR('',#166,1.);
#166 = DIRECTION('',(0.,-0.207905542574,-0.978148907563));
#167 = ORIENTED_EDGE('',*,*,#168,.T.);
#168 = EDGE_CURVE('',#161,#169,#171,.T.);
#169 = VERTEX_POINT('',#170);
#170 = CARTESIAN_POINT('',(-88.,68.5822,1.97946));
#171 = LINE('',#172,#173);
#172 = CARTESIAN_POINT('',(-88.,69.1691,1.85472));
#173 = VECTOR('',#174,1.);
#174 = DIRECTION('',(0.,-0.978150802276,0.207896628175));
#175 = ORIENTED_EDGE('',*,*,#176,.T.);
#176 = EDGE_CURVE('',#169,#177,#179,.T.);
#177 = VERTEX_POINT('',#178);
#178 = CARTESIAN_POINT('',(-88.,68.6892,2.48308));
#179 = LINE('',#180,#181);
#180 = CARTESIAN_POINT('',(-88.,68.5822,1.97946));
#181 = VECTOR('',#182,1.);
#182 = DIRECTION('',(0.,0.207822982356,0.978166452095));
#183 = ORIENTED_EDGE('',*,*,#184,.T.);
#184 = EDGE_CURVE('',#177,#185,#187,.T.);
#185 = VERTEX_POINT('',#186);
#186 = CARTESIAN_POINT('',(-88.,38.5,8.89999));
#187 = LINE('',#188,#189);
#188 = CARTESIAN_POINT('',(-88.,68.6892,2.48308));
#189 = VECTOR('',#190,1.);
#190 = DIRECTION('',(0.,-0.978147617547,0.207911611719));
#191 = ORIENTED_EDGE('',*,*,#192,.T.);
#192 = EDGE_CURVE('',#185,#193,#195,.T.);
#193 = VERTEX_POINT('',#194);
#194 = CARTESIAN_POINT('',(-88.,38.39,10.));
#195 = LINE('',#196,#197);
#196 = CARTESIAN_POINT('',(-88.,38.5,8.89999));
#197 = VECTOR('',#198,1.);
#198 = DIRECTION('',(0.,-9.950282340599E-02,0.995037279771));
#199 = ORIENTED_EDGE('',*,*,#200,.T.);
#200 = EDGE_CURVE('',#193,#201,#203,.T.);
#201 = VERTEX_POINT('',#202);
#202 = CARTESIAN_POINT('',(-88.,35.3229,10.));
#203 = LINE('',#204,#205);
#204 = CARTESIAN_POINT('',(-88.,38.39,10.));
#205 = VECTOR('',#206,1.);
#206 = DIRECTION('',(0.,-1.,0.));
#207 = ORIENTED_EDGE('',*,*,#208,.T.);
#208 = EDGE_CURVE('',#201,#209,#211,.T.);
#209 = VERTEX_POINT('',#210);
#210 = CARTESIAN_POINT('',(-88.,33.1974,0.));
#211 = LINE('',#212,#213);
#212 = CARTESIAN_POINT('',(-88.,35.3229,10.));
#213 = VECTOR('',#214,1.);
#214 = DIRECTION('',(0.,-0.207905549968,-0.978148905991));
#215 = ORIENTED_EDGE('',*,*,#216,.T.);
#216 = EDGE_CURVE('',#209,#217,#219,.T.);
#217 = VERTEX_POINT('',#218);
#218 = CARTESIAN_POINT('',(-88.,33.1974,-1.));
#219 = LINE('',#220,#221);
#220 = CARTESIAN_POINT('',(-88.,33.1974,0.));
#221 = VECTOR('',#222,1.);
#222 = DIRECTION('',(0.,0.,-1.));
#223 = ORIENTED_EDGE('',*,*,#224,.T.);
#224 = EDGE_CURVE('',#217,#62,#225,.T.);
#225 = LINE('',#226,#227);
#226 = CARTESIAN_POINT('',(-88.,33.1974,-1.));
#227 = VECTOR('',#228,1.);
#228 = DIRECTION('',(0.,1.,0.));
#229 = ORIENTED_EDGE('',*,*,#78,.T.);
#230 = PLANE('',#231);
#231 = AXIS2_PLACEMENT_3D('',#232,#233,#234);
#232 = CARTESIAN_POINT('',(-88.,69.3642822723,7.185839339658));
#233 = DIRECTION('',(1.,0.,0.));
#234 = DIRECTION('',(0.,1.,0.));
#235 = ADVANCED_FACE('',(#236),#335,.T.);
#236 = FACE_BOUND('',#237,.T.);
#237 = EDGE_LOOP('',(#238,#239,#240,#248,#256,#264,#272,#280,#288,#296,
    #304,#312,#320,#328,#334));
#238 = ORIENTED_EDGE('',*,*,#31,.T.);
#239 = ORIENTED_EDGE('',*,*,#93,.T.);
#240 = ORIENTED_EDGE('',*,*,#241,.T.);
#241 = EDGE_CURVE('',#94,#242,#244,.T.);
#242 = VERTEX_POINT('',#243);
#243 = CARTESIAN_POINT('',(-64.,76.1225,34.5679));
#244 = LINE('',#245,#246);
#245 = CARTESIAN_POINT('',(-64.,79.0569,33.9442));
#246 = VECTOR('',#247,1.);
#247 = DIRECTION('',(0.,-0.978149361529,0.207903406756));
#248 = ORIENTED_EDGE('',*,*,#249,.T.);
#249 = EDGE_CURVE('',#242,#250,#252,.T.);
#250 = VERTEX_POINT('',#251);
#251 = CARTESIAN_POINT('',(-64.,69.5187,3.5));
#252 = LINE('',#253,#254);
#253 = CARTESIAN_POINT('',(-64.,76.1225,34.5679));
#254 = VECTOR('',#255,1.);
#255 = DIRECTION('',(0.,-0.207915124791,-0.978146870814));
#256 = ORIENTED_EDGE('',*,*,#257,.T.);
#257 = EDGE_CURVE('',#250,#258,#260,.T.);
#258 = VERTEX_POINT('',#259);
#259 = CARTESIAN_POINT('',(-64.,69.5188,3.49998));
#260 = LINE('',#261,#262);
#261 = CARTESIAN_POINT('',(-64.,69.5187,3.5));
#262 = VECTOR('',#263,1.);
#263 = DIRECTION('',(0.,0.980580675692,-0.196116135133));
#264 = ORIENTED_EDGE('',*,*,#265,.T.);
#265 = EDGE_CURVE('',#258,#266,#268,.T.);
#266 = VERTEX_POINT('',#267);
#267 = CARTESIAN_POINT('',(-64.,69.1691,1.85472));
#268 = LINE('',#269,#270);
#269 = CARTESIAN_POINT('',(-64.,69.5188,3.49998));
#270 = VECTOR('',#271,1.);
#271 = DIRECTION('',(0.,-0.207905542574,-0.978148907563));
#272 = ORIENTED_EDGE('',*,*,#273,.T.);
#273 = EDGE_CURVE('',#266,#274,#276,.T.);
#274 = VERTEX_POINT('',#275);
#275 = CARTESIAN_POINT('',(-64.,68.5822,1.97946));
#276 = LINE('',#277,#278);
#277 = CARTESIAN_POINT('',(-64.,69.1691,1.85472));
#278 = VECTOR('',#279,1.);
#279 = DIRECTION('',(0.,-0.978150802276,0.207896628175));
#280 = ORIENTED_EDGE('',*,*,#281,.T.);
#281 = EDGE_CURVE('',#274,#282,#284,.T.);
#282 = VERTEX_POINT('',#283);
#283 = CARTESIAN_POINT('',(-64.,68.6892,2.48308));
#284 = LINE('',#285,#286);
#285 = CARTESIAN_POINT('',(-64.,68.5822,1.97946));
#286 = VECTOR('',#287,1.);
#287 = DIRECTION('',(0.,0.207822982356,0.978166452095));
#288 = ORIENTED_EDGE('',*,*,#289,.T.);
#289 = EDGE_CURVE('',#282,#290,#292,.T.);
#290 = VERTEX_POINT('',#291);
#291 = CARTESIAN_POINT('',(-64.,38.5,8.89999));
#292 = LINE('',#293,#294);
#293 = CARTESIAN_POINT('',(-64.,68.6892,2.48308));
#294 = VECTOR('',#295,1.);
#295 = DIRECTION('',(0.,-0.978147617547,0.207911611719));
#296 = ORIENTED_EDGE('',*,*,#297,.T.);
#297 = EDGE_CURVE('',#290,#298,#300,.T.);
#298 = VERTEX_POINT('',#299);
#299 = CARTESIAN_POINT('',(-64.,38.39,10.));
#300 = LINE('',#301,#302);
#301 = CARTESIAN_POINT('',(-64.,38.5,8.89999));
#302 = VECTOR('',#303,1.);
#303 = DIRECTION('',(0.,-9.950282340599E-02,0.995037279771));
#304 = ORIENTED_EDGE('',*,*,#305,.T.);
#305 = EDGE_CURVE('',#298,#306,#308,.T.);
#306 = VERTEX_POINT('',#307);
#307 = CARTESIAN_POINT('',(-64.,35.3229,10.));
#308 = LINE('',#309,#310);
#309 = CARTESIAN_POINT('',(-64.,38.39,10.));
#310 = VECTOR('',#311,1.);
#311 = DIRECTION('',(0.,-1.,0.));
#312 = ORIENTED_EDGE('',*,*,#313,.T.);
#313 = EDGE_CURVE('',#306,#314,#316,.T.);
#314 = VERTEX_POINT('',#315);
#315 = CARTESIAN_POINT('',(-64.,33.1974,0.));
#316 = LINE('',#317,#318);
#317 = CARTESIAN_POINT('',(-64.,35.3229,10.));
#318 = VECTOR('',#319,1.);
#319 = DIRECTION('',(0.,-0.207905549968,-0.978148905991));
#320 = ORIENTED_EDGE('',*,*,#321,.T.);
#321 = EDGE_CURVE('',#314,#322,#324,.T.);
#322 = VERTEX_POINT('',#323);
#323 = CARTESIAN_POINT('',(-64.,33.1974,-1.));
#324 = LINE('',#325,#326);
#325 = CARTESIAN_POINT('',(-64.,33.1974,0.));
#326 = VECTOR('',#327,1.);
#327 = DIRECTION('',(0.,0.,-1.));
#328 = ORIENTED_EDGE('',*,*,#329,.T.);
#329 = EDGE_CURVE('',#322,#64,#330,.T.);
#330 = LINE('',#331,#332);
#331 = CARTESIAN_POINT('',(-64.,33.1974,-1.));
#332 = VECTOR('',#333,1.);
#333 = DIRECTION('',(0.,1.,0.));
#334 = ORIENTED_EDGE('',*,*,#71,.T.);
#335 = PLANE('',#336);
#336 = AXIS2_PLACEMENT_3D('',#337,#338,#339);
#337 = CARTESIAN_POINT('',(-64.,69.3642822723,7.185839339658));
#338 = DIRECTION('',(1.,0.,0.));
#339 = DIRECTION('',(0.,1.,0.));
#340 = ADVANCED_FACE('',(#341),#352,.F.);
#341 = FACE_BOUND('',#342,.F.);
#342 = EDGE_LOOP('',(#343,#349,#350,#351));
#343 = ORIENTED_EDGE('',*,*,#344,.T.);
#344 = EDGE_CURVE('',#217,#322,#345,.T.);
#345 = LINE('',#346,#347);
#346 = CARTESIAN_POINT('',(-88.,33.1974,-1.));
#347 = VECTOR('',#348,1.);
#348 = DIRECTION('',(1.,0.,0.));
#349 = ORIENTED_EDGE('',*,*,#329,.T.);
#350 = ORIENTED_EDGE('',*,*,#61,.F.);
#351 = ORIENTED_EDGE('',*,*,#224,.F.);
#352 = PLANE('',#353);
#353 = AXIS2_PLACEMENT_3D('',#354,#355,#356);
#354 = CARTESIAN_POINT('',(-88.,33.1974,-1.));
#355 = DIRECTION('',(0.,0.,1.));
#356 = DIRECTION('',(0.,1.,0.));
#357 = ADVANCED_FACE('',(#358),#369,.F.);
#358 = FACE_BOUND('',#359,.F.);
#359 = EDGE_LOOP('',(#360,#361,#362,#368));
#360 = ORIENTED_EDGE('',*,*,#101,.T.);
#361 = ORIENTED_EDGE('',*,*,#241,.T.);
#362 = ORIENTED_EDGE('',*,*,#363,.F.);
#363 = EDGE_CURVE('',#137,#242,#364,.T.);
#364 = LINE('',#365,#366);
#365 = CARTESIAN_POINT('',(-88.,76.1225,34.5679));
#366 = VECTOR('',#367,1.);
#367 = DIRECTION('',(1.,0.,0.));
#368 = ORIENTED_EDGE('',*,*,#136,.F.);
#369 = PLANE('',#370);
#370 = AXIS2_PLACEMENT_3D('',#371,#372,#373);
#371 = CARTESIAN_POINT('',(-88.,79.0569,33.9442));
#372 = DIRECTION('',(0.,-0.207903406756,-0.978149361529));
#373 = DIRECTION('',(0.,-0.978149361529,0.207903406756));
#374 = ADVANCED_FACE('',(#375),#394,.F.);
#375 = FACE_BOUND('',#376,.F.);
#376 = EDGE_LOOP('',(#377,#378,#386,#393));
#377 = ORIENTED_EDGE('',*,*,#117,.F.);
#378 = ORIENTED_EDGE('',*,*,#379,.F.);
#379 = EDGE_CURVE('',#380,#118,#382,.T.);
#380 = VERTEX_POINT('',#381);
#381 = CARTESIAN_POINT('',(-85.2,70.982296795903,10.385562690486));
#382 = LINE('',#383,#384);
#383 = CARTESIAN_POINT('',(-85.2,70.589825404781,10.468985149941));
#384 = VECTOR('',#385,1.);
#385 = DIRECTION('',(0.,0.978147555115,-0.207911905437));
#386 = ORIENTED_EDGE('',*,*,#387,.T.);
#387 = EDGE_CURVE('',#380,#380,#388,.T.);
#388 = ELLIPSE('',#389,1.700000000009,1.7);
#389 = AXIS2_PLACEMENT_3D('',#390,#391,#392);
#390 = CARTESIAN_POINT('',(-83.5,70.982296795903,10.385562690486));
#391 = DIRECTION('',(0.,0.978146870814,-0.207915124791));
#392 = DIRECTION('',(0.,0.207915124791,0.978146870814));
#393 = ORIENTED_EDGE('',*,*,#379,.T.);
#394 = CYLINDRICAL_SURFACE('',#395,1.7);
#395 = AXIS2_PLACEMENT_3D('',#396,#397,#398);
#396 = CARTESIAN_POINT('',(-83.5,70.589825404781,10.468985149941));
#397 = DIRECTION('',(0.,0.978147555115,-0.207911905437));
#398 = DIRECTION('',(-1.,0.,0.));
#399 = ADVANCED_FACE('',(#400,#411),#414,.F.);
#400 = FACE_BOUND('',#401,.F.);
#401 = EDGE_LOOP('',(#402,#403,#404,#410));
#402 = ORIENTED_EDGE('',*,*,#363,.T.);
#403 = ORIENTED_EDGE('',*,*,#249,.T.);
#404 = ORIENTED_EDGE('',*,*,#405,.F.);
#405 = EDGE_CURVE('',#145,#250,#406,.T.);
#406 = LINE('',#407,#408);
#407 = CARTESIAN_POINT('',(-88.,69.5187,3.5));
#408 = VECTOR('',#409,1.);
#409 = DIRECTION('',(1.,0.,0.));
#410 = ORIENTED_EDGE('',*,*,#144,.F.);
#411 = FACE_BOUND('',#412,.F.);
#412 = EDGE_LOOP('',(#413));
#413 = ORIENTED_EDGE('',*,*,#387,.F.);
#414 = PLANE('',#415);
#415 = AXIS2_PLACEMENT_3D('',#416,#417,#418);
#416 = CARTESIAN_POINT('',(-88.,76.1225,34.5679));
#417 = DIRECTION('',(0.,0.978146870814,-0.207915124791));
#418 = DIRECTION('',(0.,-0.207915124791,-0.978146870814));
#419 = ADVANCED_FACE('',(#420),#431,.F.);
#420 = FACE_BOUND('',#421,.F.);
#421 = EDGE_LOOP('',(#422,#423,#424,#430));
#422 = ORIENTED_EDGE('',*,*,#405,.T.);
#423 = ORIENTED_EDGE('',*,*,#257,.T.);
#424 = ORIENTED_EDGE('',*,*,#425,.F.);
#425 = EDGE_CURVE('',#153,#258,#426,.T.);
#426 = LINE('',#427,#428);
#427 = CARTESIAN_POINT('',(-88.,69.5188,3.49998));
#428 = VECTOR('',#429,1.);
#429 = DIRECTION('',(1.,0.,0.));
#430 = ORIENTED_EDGE('',*,*,#152,.F.);
#431 = PLANE('',#432);
#432 = AXIS2_PLACEMENT_3D('',#433,#434,#435);
#433 = CARTESIAN_POINT('',(-88.,69.5187,3.5));
#434 = DIRECTION('',(0.,0.196116135133,0.980580675692));
#435 = DIRECTION('',(0.,0.980580675692,-0.196116135133));
#436 = ADVANCED_FACE('',(#437),#448,.F.);
#437 = FACE_BOUND('',#438,.F.);
#438 = EDGE_LOOP('',(#439,#440,#441,#447));
#439 = ORIENTED_EDGE('',*,*,#425,.T.);
#440 = ORIENTED_EDGE('',*,*,#265,.T.);
#441 = ORIENTED_EDGE('',*,*,#442,.F.);
#442 = EDGE_CURVE('',#161,#266,#443,.T.);
#443 = LINE('',#444,#445);
#444 = CARTESIAN_POINT('',(-88.,69.1691,1.85472));
#445 = VECTOR('',#446,1.);
#446 = DIRECTION('',(1.,0.,0.));
#447 = ORIENTED_EDGE('',*,*,#160,.F.);
#448 = PLANE('',#449);
#449 = AXIS2_PLACEMENT_3D('',#450,#451,#452);
#450 = CARTESIAN_POINT('',(-88.,69.5188,3.49998));
#451 = DIRECTION('',(0.,0.978148907563,-0.207905542574));
#452 = DIRECTION('',(0.,-0.207905542574,-0.978148907563));
#453 = ADVANCED_FACE('',(#454),#465,.F.);
#454 = FACE_BOUND('',#455,.F.);
#455 = EDGE_LOOP('',(#456,#457,#458,#464));
#456 = ORIENTED_EDGE('',*,*,#442,.T.);
#457 = ORIENTED_EDGE('',*,*,#273,.T.);
#458 = ORIENTED_EDGE('',*,*,#459,.F.);
#459 = EDGE_CURVE('',#169,#274,#460,.T.);
#460 = LINE('',#461,#462);
#461 = CARTESIAN_POINT('',(-88.,68.5822,1.97946));
#462 = VECTOR('',#463,1.);
#463 = DIRECTION('',(1.,0.,0.));
#464 = ORIENTED_EDGE('',*,*,#168,.F.);
#465 = PLANE('',#466);
#466 = AXIS2_PLACEMENT_3D('',#467,#468,#469);
#467 = CARTESIAN_POINT('',(-88.,69.1691,1.85472));
#468 = DIRECTION('',(0.,-0.207896628175,-0.978150802276));
#469 = DIRECTION('',(0.,-0.978150802276,0.207896628175));
#470 = ADVANCED_FACE('',(#471),#482,.F.);
#471 = FACE_BOUND('',#472,.F.);
#472 = EDGE_LOOP('',(#473,#474,#475,#481));
#473 = ORIENTED_EDGE('',*,*,#459,.T.);
#474 = ORIENTED_EDGE('',*,*,#281,.T.);
#475 = ORIENTED_EDGE('',*,*,#476,.F.);
#476 = EDGE_CURVE('',#177,#282,#477,.T.);
#477 = LINE('',#478,#479);
#478 = CARTESIAN_POINT('',(-88.,68.6892,2.48308));
#479 = VECTOR('',#480,1.);
#480 = DIRECTION('',(1.,0.,0.));
#481 = ORIENTED_EDGE('',*,*,#176,.F.);
#482 = PLANE('',#483);
#483 = AXIS2_PLACEMENT_3D('',#484,#485,#486);
#484 = CARTESIAN_POINT('',(-88.,68.5822,1.97946));
#485 = DIRECTION('',(0.,-0.978166452095,0.207822982356));
#486 = DIRECTION('',(0.,0.207822982356,0.978166452095));
#487 = ADVANCED_FACE('',(#488),#499,.F.);
#488 = FACE_BOUND('',#489,.F.);
#489 = EDGE_LOOP('',(#490,#491,#492,#498));
#490 = ORIENTED_EDGE('',*,*,#476,.T.);
#491 = ORIENTED_EDGE('',*,*,#289,.T.);
#492 = ORIENTED_EDGE('',*,*,#493,.F.);
#493 = EDGE_CURVE('',#185,#290,#494,.T.);
#494 = LINE('',#495,#496);
#495 = CARTESIAN_POINT('',(-88.,38.5,8.89999));
#496 = VECTOR('',#497,1.);
#497 = DIRECTION('',(1.,0.,0.));
#498 = ORIENTED_EDGE('',*,*,#184,.F.);
#499 = PLANE('',#500);
#500 = AXIS2_PLACEMENT_3D('',#501,#502,#503);
#501 = CARTESIAN_POINT('',(-88.,68.6892,2.48308));
#502 = DIRECTION('',(0.,-0.207911611719,-0.978147617547));
#503 = DIRECTION('',(0.,-0.978147617547,0.207911611719));
#504 = ADVANCED_FACE('',(#505),#516,.F.);
#505 = FACE_BOUND('',#506,.F.);
#506 = EDGE_LOOP('',(#507,#508,#509,#515));
#507 = ORIENTED_EDGE('',*,*,#493,.T.);
#508 = ORIENTED_EDGE('',*,*,#297,.T.);
#509 = ORIENTED_EDGE('',*,*,#510,.F.);
#510 = EDGE_CURVE('',#193,#298,#511,.T.);
#511 = LINE('',#512,#513);
#512 = CARTESIAN_POINT('',(-88.,38.39,10.));
#513 = VECTOR('',#514,1.);
#514 = DIRECTION('',(1.,0.,0.));
#515 = ORIENTED_EDGE('',*,*,#192,.F.);
#516 = PLANE('',#517);
#517 = AXIS2_PLACEMENT_3D('',#518,#519,#520);
#518 = CARTESIAN_POINT('',(-88.,38.5,8.89999));
#519 = DIRECTION('',(0.,-0.995037279771,-9.950282340599E-02));
#520 = DIRECTION('',(0.,-9.950282340599E-02,0.995037279771));
#521 = ADVANCED_FACE('',(#522),#533,.F.);
#522 = FACE_BOUND('',#523,.F.);
#523 = EDGE_LOOP('',(#524,#525,#526,#532));
#524 = ORIENTED_EDGE('',*,*,#510,.T.);
#525 = ORIENTED_EDGE('',*,*,#305,.T.);
#526 = ORIENTED_EDGE('',*,*,#527,.F.);
#527 = EDGE_CURVE('',#201,#306,#528,.T.);
#528 = LINE('',#529,#530);
#529 = CARTESIAN_POINT('',(-88.,35.3229,10.));
#530 = VECTOR('',#531,1.);
#531 = DIRECTION('',(1.,0.,0.));
#532 = ORIENTED_EDGE('',*,*,#200,.F.);
#533 = PLANE('',#534);
#534 = AXIS2_PLACEMENT_3D('',#535,#536,#537);
#535 = CARTESIAN_POINT('',(-88.,38.39,10.));
#536 = DIRECTION('',(0.,0.,-1.));
#537 = DIRECTION('',(0.,-1.,0.));
#538 = ADVANCED_FACE('',(#539),#550,.F.);
#539 = FACE_BOUND('',#540,.F.);
#540 = EDGE_LOOP('',(#541,#542,#543,#549));
#541 = ORIENTED_EDGE('',*,*,#527,.T.);
#542 = ORIENTED_EDGE('',*,*,#313,.T.);
#543 = ORIENTED_EDGE('',*,*,#544,.F.);
#544 = EDGE_CURVE('',#209,#314,#545,.T.);
#545 = LINE('',#546,#547);
#546 = CARTESIAN_POINT('',(-88.,33.1974,0.));
#547 = VECTOR('',#548,1.);
#548 = DIRECTION('',(1.,0.,0.));
#549 = ORIENTED_EDGE('',*,*,#208,.F.);
#550 = PLANE('',#551);
#551 = AXIS2_PLACEMENT_3D('',#552,#553,#554);
#552 = CARTESIAN_POINT('',(-88.,35.3229,10.));
#553 = DIRECTION('',(0.,0.978148905991,-0.207905549968));
#554 = DIRECTION('',(0.,-0.207905549968,-0.978148905991));
#555 = ADVANCED_FACE('',(#556),#562,.F.);
#556 = FACE_BOUND('',#557,.F.);
#557 = EDGE_LOOP('',(#558,#559,#560,#561));
#558 = ORIENTED_EDGE('',*,*,#544,.T.);
#559 = ORIENTED_EDGE('',*,*,#321,.T.);
#560 = ORIENTED_EDGE('',*,*,#344,.F.);
#561 = ORIENTED_EDGE('',*,*,#216,.F.);
#562 = PLANE('',#563);
#563 = AXIS2_PLACEMENT_3D('',#564,#565,#566);
#564 = CARTESIAN_POINT('',(-88.,33.1974,0.));
#565 = DIRECTION('',(0.,1.,0.));
#566 = DIRECTION('',(0.,0.,-1.));
#567 = MANIFOLD_SOLID_BREP('',#568);
#568 = CLOSED_SHELL('',(#569,#609,#640,#682,#787,#892,#909,#926,#951,
    #971,#988,#1005,#1022,#1039,#1056,#1073,#1090,#1107));
#569 = ADVANCED_FACE('',(#570),#604,.F.);
#570 = FACE_BOUND('',#571,.F.);
#571 = EDGE_LOOP('',(#572,#582,#590,#598));
#572 = ORIENTED_EDGE('',*,*,#573,.T.);
#573 = EDGE_CURVE('',#574,#576,#578,.T.);
#574 = VERTEX_POINT('',#575);
#575 = CARTESIAN_POINT('',(64.,104.,3.));
#576 = VERTEX_POINT('',#577);
#577 = CARTESIAN_POINT('',(88.,104.,3.));
#578 = LINE('',#579,#580);
#579 = CARTESIAN_POINT('',(64.,104.,3.));
#580 = VECTOR('',#581,1.);
#581 = DIRECTION('',(1.,0.,0.));
#582 = ORIENTED_EDGE('',*,*,#583,.T.);
#583 = EDGE_CURVE('',#576,#584,#586,.T.);
#584 = VERTEX_POINT('',#585);
#585 = CARTESIAN_POINT('',(88.,72.4795,3.));
#586 = LINE('',#587,#588);
#587 = CARTESIAN_POINT('',(88.,104.,3.));
#588 = VECTOR('',#589,1.);
#589 = DIRECTION('',(0.,-1.,0.));
#590 = ORIENTED_EDGE('',*,*,#591,.F.);
#591 = EDGE_CURVE('',#592,#584,#594,.T.);
#592 = VERTEX_POINT('',#593);
#593 = CARTESIAN_POINT('',(64.,72.4795,3.));
#594 = LINE('',#595,#596);
#595 = CARTESIAN_POINT('',(64.,72.4795,3.));
#596 = VECTOR('',#597,1.);
#597 = DIRECTION('',(1.,0.,0.));
#598 = ORIENTED_EDGE('',*,*,#599,.F.);
#599 = EDGE_CURVE('',#574,#592,#600,.T.);
#600 = LINE('',#601,#602);
#601 = CARTESIAN_POINT('',(64.,104.,3.));
#602 = VECTOR('',#603,1.);
#603 = DIRECTION('',(0.,-1.,0.));
#604 = PLANE('',#605);
#605 = AXIS2_PLACEMENT_3D('',#606,#607,#608);
#606 = CARTESIAN_POINT('',(64.,104.,3.));
#607 = DIRECTION('',(0.,0.,-1.));
#608 = DIRECTION('',(0.,-1.,0.));
#609 = ADVANCED_FACE('',(#610),#635,.F.);
#610 = FACE_BOUND('',#611,.F.);
#611 = EDGE_LOOP('',(#612,#622,#628,#629));
#612 = ORIENTED_EDGE('',*,*,#613,.T.);
#613 = EDGE_CURVE('',#614,#616,#618,.T.);
#614 = VERTEX_POINT('',#615);
#615 = CARTESIAN_POINT('',(64.,104.,-1.));
#616 = VERTEX_POINT('',#617);
#617 = CARTESIAN_POINT('',(88.,104.,-1.));
#618 = LINE('',#619,#620);
#619 = CARTESIAN_POINT('',(64.,104.,-1.));
#620 = VECTOR('',#621,1.);
#621 = DIRECTION('',(1.,0.,0.));
#622 = ORIENTED_EDGE('',*,*,#623,.T.);
#623 = EDGE_CURVE('',#616,#576,#624,.T.);
#624 = LINE('',#625,#626);
#625 = CARTESIAN_POINT('',(88.,104.,-1.));
#626 = VECTOR('',#627,1.);
#627 = DIRECTION('',(0.,0.,1.));
#628 = ORIENTED_EDGE('',*,*,#573,.F.);
#629 = ORIENTED_EDGE('',*,*,#630,.F.);
#630 = EDGE_CURVE('',#614,#574,#631,.T.);
#631 = LINE('',#632,#633);
#632 = CARTESIAN_POINT('',(64.,104.,-1.));
#633 = VECTOR('',#634,1.);
#634 = DIRECTION('',(0.,0.,1.));
#635 = PLANE('',#636);
#636 = AXIS2_PLACEMENT_3D('',#637,#638,#639);
#637 = CARTESIAN_POINT('',(64.,104.,-1.));
#638 = DIRECTION('',(0.,-1.,0.));
#639 = DIRECTION('',(0.,0.,1.));
#640 = ADVANCED_FACE('',(#641,#666),#677,.F.);
#641 = FACE_BOUND('',#642,.F.);
#642 = EDGE_LOOP('',(#643,#644,#652,#660));
#643 = ORIENTED_EDGE('',*,*,#591,.T.);
#644 = ORIENTED_EDGE('',*,*,#645,.T.);
#645 = EDGE_CURVE('',#584,#646,#648,.T.);
#646 = VERTEX_POINT('',#647);
#647 = CARTESIAN_POINT('',(88.,79.0569,33.9442));
#648 = LINE('',#649,#650);
#649 = CARTESIAN_POINT('',(88.,72.4795,3.));
#650 = VECTOR('',#651,1.);
#651 = DIRECTION('',(0.,0.207911909914,0.978147554163));
#652 = ORIENTED_EDGE('',*,*,#653,.F.);
#653 = EDGE_CURVE('',#654,#646,#656,.T.);
#654 = VERTEX_POINT('',#655);
#655 = CARTESIAN_POINT('',(64.,79.0569,33.9442));
#656 = LINE('',#657,#658);
#657 = CARTESIAN_POINT('',(64.,79.0569,33.9442));
#658 = VECTOR('',#659,1.);
#659 = DIRECTION('',(1.,0.,0.));
#660 = ORIENTED_EDGE('',*,*,#661,.F.);
#661 = EDGE_CURVE('',#592,#654,#662,.T.);
#662 = LINE('',#663,#664);
#663 = CARTESIAN_POINT('',(64.,72.4795,3.));
#664 = VECTOR('',#665,1.);
#665 = DIRECTION('',(0.,0.207911909914,0.978147554163));
#666 = FACE_BOUND('',#667,.F.);
#667 = EDGE_LOOP('',(#668));
#668 = ORIENTED_EDGE('',*,*,#669,.T.);
#669 = EDGE_CURVE('',#670,#670,#672,.T.);
#670 = VERTEX_POINT('',#671);
#671 = CARTESIAN_POINT('',(81.8,73.916770856792,9.76182030084));
#672 = CIRCLE('',#673,1.7);
#673 = AXIS2_PLACEMENT_3D('',#674,#675,#676);
#674 = CARTESIAN_POINT('',(83.5,73.916770856792,9.76182030084));
#675 = DIRECTION('',(0.,0.978147555115,-0.207911905437));
#676 = DIRECTION('',(-1.,0.,0.));
#677 = PLANE('',#678);
#678 = AXIS2_PLACEMENT_3D('',#679,#680,#681);
#679 = CARTESIAN_POINT('',(64.,72.4795,3.));
#680 = DIRECTION('',(0.,-0.978147554163,0.207911909914));
#681 = DIRECTION('',(0.,0.207911909914,0.978147554163));
#682 = ADVANCED_FACE('',(#683),#782,.F.);
#683 = FACE_BOUND('',#684,.F.);
#684 = EDGE_LOOP('',(#685,#686,#687,#695,#703,#711,#719,#727,#735,#743,
    #751,#759,#767,#775,#781));
#685 = ORIENTED_EDGE('',*,*,#599,.T.);
#686 = ORIENTED_EDGE('',*,*,#661,.T.);
#687 = ORIENTED_EDGE('',*,*,#688,.T.);
#688 = EDGE_CURVE('',#654,#689,#691,.T.);
#689 = VERTEX_POINT('',#690);
#690 = CARTESIAN_POINT('',(64.,76.1225,34.5679));
#691 = LINE('',#692,#693);
#692 = CARTESIAN_POINT('',(64.,79.0569,33.9442));
#693 = VECTOR('',#694,1.);
#694 = DIRECTION('',(0.,-0.978149361529,0.207903406756));
#695 = ORIENTED_EDGE('',*,*,#696,.T.);
#696 = EDGE_CURVE('',#689,#697,#699,.T.);
#697 = VERTEX_POINT('',#698);
#698 = CARTESIAN_POINT('',(64.,69.5187,3.5));
#699 = LINE('',#700,#701);
#700 = CARTESIAN_POINT('',(64.,76.1225,34.5679));
#701 = VECTOR('',#702,1.);
#702 = DIRECTION('',(0.,-0.207915124791,-0.978146870814));
#703 = ORIENTED_EDGE('',*,*,#704,.T.);
#704 = EDGE_CURVE('',#697,#705,#707,.T.);
#705 = VERTEX_POINT('',#706);
#706 = CARTESIAN_POINT('',(64.,69.5188,3.49998));
#707 = LINE('',#708,#709);
#708 = CARTESIAN_POINT('',(64.,69.5187,3.5));
#709 = VECTOR('',#710,1.);
#710 = DIRECTION('',(0.,0.980580675692,-0.196116135133));
#711 = ORIENTED_EDGE('',*,*,#712,.T.);
#712 = EDGE_CURVE('',#705,#713,#715,.T.);
#713 = VERTEX_POINT('',#714);
#714 = CARTESIAN_POINT('',(64.,69.1691,1.85472));
#715 = LINE('',#716,#717);
#716 = CARTESIAN_POINT('',(64.,69.5188,3.49998));
#717 = VECTOR('',#718,1.);
#718 = DIRECTION('',(0.,-0.207905542574,-0.978148907563));
#719 = ORIENTED_EDGE('',*,*,#720,.T.);
#720 = EDGE_CURVE('',#713,#721,#723,.T.);
#721 = VERTEX_POINT('',#722);
#722 = CARTESIAN_POINT('',(64.,68.5822,1.97946));
#723 = LINE('',#724,#725);
#724 = CARTESIAN_POINT('',(64.,69.1691,1.85472));
#725 = VECTOR('',#726,1.);
#726 = DIRECTION('',(0.,-0.978150802276,0.207896628175));
#727 = ORIENTED_EDGE('',*,*,#728,.T.);
#728 = EDGE_CURVE('',#721,#729,#731,.T.);
#729 = VERTEX_POINT('',#730);
#730 = CARTESIAN_POINT('',(64.,68.6892,2.48308));
#731 = LINE('',#732,#733);
#732 = CARTESIAN_POINT('',(64.,68.5822,1.97946));
#733 = VECTOR('',#734,1.);
#734 = DIRECTION('',(0.,0.207822982356,0.978166452095));
#735 = ORIENTED_EDGE('',*,*,#736,.T.);
#736 = EDGE_CURVE('',#729,#737,#739,.T.);
#737 = VERTEX_POINT('',#738);
#738 = CARTESIAN_POINT('',(64.,38.5,8.89999));
#739 = LINE('',#740,#741);
#740 = CARTESIAN_POINT('',(64.,68.6892,2.48308));
#741 = VECTOR('',#742,1.);
#742 = DIRECTION('',(0.,-0.978147617547,0.207911611719));
#743 = ORIENTED_EDGE('',*,*,#744,.T.);
#744 = EDGE_CURVE('',#737,#745,#747,.T.);
#745 = VERTEX_POINT('',#746);
#746 = CARTESIAN_POINT('',(64.,38.39,10.));
#747 = LINE('',#748,#749);
#748 = CARTESIAN_POINT('',(64.,38.5,8.89999));
#749 = VECTOR('',#750,1.);
#750 = DIRECTION('',(0.,-9.950282340599E-02,0.995037279771));
#751 = ORIENTED_EDGE('',*,*,#752,.T.);
#752 = EDGE_CURVE('',#745,#753,#755,.T.);
#753 = VERTEX_POINT('',#754);
#754 = CARTESIAN_POINT('',(64.,35.3229,10.));
#755 = LINE('',#756,#757);
#756 = CARTESIAN_POINT('',(64.,38.39,10.));
#757 = VECTOR('',#758,1.);
#758 = DIRECTION('',(0.,-1.,0.));
#759 = ORIENTED_EDGE('',*,*,#760,.T.);
#760 = EDGE_CURVE('',#753,#761,#763,.T.);
#761 = VERTEX_POINT('',#762);
#762 = CARTESIAN_POINT('',(64.,33.1974,0.));
#763 = LINE('',#764,#765);
#764 = CARTESIAN_POINT('',(64.,35.3229,10.));
#765 = VECTOR('',#766,1.);
#766 = DIRECTION('',(0.,-0.207905549968,-0.978148905991));
#767 = ORIENTED_EDGE('',*,*,#768,.T.);
#768 = EDGE_CURVE('',#761,#769,#771,.T.);
#769 = VERTEX_POINT('',#770);
#770 = CARTESIAN_POINT('',(64.,33.1974,-1.));
#771 = LINE('',#772,#773);
#772 = CARTESIAN_POINT('',(64.,33.1974,0.));
#773 = VECTOR('',#774,1.);
#774 = DIRECTION('',(0.,0.,-1.));
#775 = ORIENTED_EDGE('',*,*,#776,.T.);
#776 = EDGE_CURVE('',#769,#614,#777,.T.);
#777 = LINE('',#778,#779);
#778 = CARTESIAN_POINT('',(64.,33.1974,-1.));
#779 = VECTOR('',#780,1.);
#780 = DIRECTION('',(0.,1.,0.));
#781 = ORIENTED_EDGE('',*,*,#630,.T.);
#782 = PLANE('',#783);
#783 = AXIS2_PLACEMENT_3D('',#784,#785,#786);
#784 = CARTESIAN_POINT('',(64.,69.3642822723,7.185839339658));
#785 = DIRECTION('',(1.,0.,0.));
#786 = DIRECTION('',(0.,1.,0.));
#787 = ADVANCED_FACE('',(#788),#887,.T.);
#788 = FACE_BOUND('',#789,.T.);
#789 = EDGE_LOOP('',(#790,#791,#792,#800,#808,#816,#824,#832,#840,#848,
    #856,#864,#872,#880,#886));
#790 = ORIENTED_EDGE('',*,*,#583,.T.);
#791 = ORIENTED_EDGE('',*,*,#645,.T.);
#792 = ORIENTED_EDGE('',*,*,#793,.T.);
#793 = EDGE_CURVE('',#646,#794,#796,.T.);
#794 = VERTEX_POINT('',#795);
#795 = CARTESIAN_POINT('',(88.,76.1225,34.5679));
#796 = LINE('',#797,#798);
#797 = CARTESIAN_POINT('',(88.,79.0569,33.9442));
#798 = VECTOR('',#799,1.);
#799 = DIRECTION('',(0.,-0.978149361529,0.207903406756));
#800 = ORIENTED_EDGE('',*,*,#801,.T.);
#801 = EDGE_CURVE('',#794,#802,#804,.T.);
#802 = VERTEX_POINT('',#803);
#803 = CARTESIAN_POINT('',(88.,69.5187,3.5));
#804 = LINE('',#805,#806);
#805 = CARTESIAN_POINT('',(88.,76.1225,34.5679));
#806 = VECTOR('',#807,1.);
#807 = DIRECTION('',(0.,-0.207915124791,-0.978146870814));
#808 = ORIENTED_EDGE('',*,*,#809,.T.);
#809 = EDGE_CURVE('',#802,#810,#812,.T.);
#810 = VERTEX_POINT('',#811);
#811 = CARTESIAN_POINT('',(88.,69.5188,3.49998));
#812 = LINE('',#813,#814);
#813 = CARTESIAN_POINT('',(88.,69.5187,3.5));
#814 = VECTOR('',#815,1.);
#815 = DIRECTION('',(0.,0.980580675692,-0.196116135133));
#816 = ORIENTED_EDGE('',*,*,#817,.T.);
#817 = EDGE_CURVE('',#810,#818,#820,.T.);
#818 = VERTEX_POINT('',#819);
#819 = CARTESIAN_POINT('',(88.,69.1691,1.85472));
#820 = LINE('',#821,#822);
#821 = CARTESIAN_POINT('',(88.,69.5188,3.49998));
#822 = VECTOR('',#823,1.);
#823 = DIRECTION('',(0.,-0.207905542574,-0.978148907563));
#824 = ORIENTED_EDGE('',*,*,#825,.T.);
#825 = EDGE_CURVE('',#818,#826,#828,.T.);
#826 = VERTEX_POINT('',#827);
#827 = CARTESIAN_POINT('',(88.,68.5822,1.97946));
#828 = LINE('',#829,#830);
#829 = CARTESIAN_POINT('',(88.,69.1691,1.85472));
#830 = VECTOR('',#831,1.);
#831 = DIRECTION('',(0.,-0.978150802276,0.207896628175));
#832 = ORIENTED_EDGE('',*,*,#833,.T.);
#833 = EDGE_CURVE('',#826,#834,#836,.T.);
#834 = VERTEX_POINT('',#835);
#835 = CARTESIAN_POINT('',(88.,68.6892,2.48308));
#836 = LINE('',#837,#838);
#837 = CARTESIAN_POINT('',(88.,68.5822,1.97946));
#838 = VECTOR('',#839,1.);
#839 = DIRECTION('',(0.,0.207822982356,0.978166452095));
#840 = ORIENTED_EDGE('',*,*,#841,.T.);
#841 = EDGE_CURVE('',#834,#842,#844,.T.);
#842 = VERTEX_POINT('',#843);
#843 = CARTESIAN_POINT('',(88.,38.5,8.89999));
#844 = LINE('',#845,#846);
#845 = CARTESIAN_POINT('',(88.,68.6892,2.48308));
#846 = VECTOR('',#847,1.);
#847 = DIRECTION('',(0.,-0.978147617547,0.207911611719));
#848 = ORIENTED_EDGE('',*,*,#849,.T.);
#849 = EDGE_CURVE('',#842,#850,#852,.T.);
#850 = VERTEX_POINT('',#851);
#851 = CARTESIAN_POINT('',(88.,38.39,10.));
#852 = LINE('',#853,#854);
#853 = CARTESIAN_POINT('',(88.,38.5,8.89999));
#854 = VECTOR('',#855,1.);
#855 = DIRECTION('',(0.,-9.950282340599E-02,0.995037279771));
#856 = ORIENTED_EDGE('',*,*,#857,.T.);
#857 = EDGE_CURVE('',#850,#858,#860,.T.);
#858 = VERTEX_POINT('',#859);
#859 = CARTESIAN_POINT('',(88.,35.3229,10.));
#860 = LINE('',#861,#862);
#861 = CARTESIAN_POINT('',(88.,38.39,10.));
#862 = VECTOR('',#863,1.);
#863 = DIRECTION('',(0.,-1.,0.));
#864 = ORIENTED_EDGE('',*,*,#865,.T.);
#865 = EDGE_CURVE('',#858,#866,#868,.T.);
#866 = VERTEX_POINT('',#867);
#867 = CARTESIAN_POINT('',(88.,33.1974,0.));
#868 = LINE('',#869,#870);
#869 = CARTESIAN_POINT('',(88.,35.3229,10.));
#870 = VECTOR('',#871,1.);
#871 = DIRECTION('',(0.,-0.207905549968,-0.978148905991));
#872 = ORIENTED_EDGE('',*,*,#873,.T.);
#873 = EDGE_CURVE('',#866,#874,#876,.T.);
#874 = VERTEX_POINT('',#875);
#875 = CARTESIAN_POINT('',(88.,33.1974,-1.));
#876 = LINE('',#877,#878);
#877 = CARTESIAN_POINT('',(88.,33.1974,0.));
#878 = VECTOR('',#879,1.);
#879 = DIRECTION('',(0.,0.,-1.));
#880 = ORIENTED_EDGE('',*,*,#881,.T.);
#881 = EDGE_CURVE('',#874,#616,#882,.T.);
#882 = LINE('',#883,#884);
#883 = CARTESIAN_POINT('',(88.,33.1974,-1.));
#884 = VECTOR('',#885,1.);
#885 = DIRECTION('',(0.,1.,0.));
#886 = ORIENTED_EDGE('',*,*,#623,.T.);
#887 = PLANE('',#888);
#888 = AXIS2_PLACEMENT_3D('',#889,#890,#891);
#889 = CARTESIAN_POINT('',(88.,69.3642822723,7.185839339658));
#890 = DIRECTION('',(1.,0.,0.));
#891 = DIRECTION('',(0.,1.,0.));
#892 = ADVANCED_FACE('',(#893),#904,.F.);
#893 = FACE_BOUND('',#894,.F.);
#894 = EDGE_LOOP('',(#895,#901,#902,#903));
#895 = ORIENTED_EDGE('',*,*,#896,.T.);
#896 = EDGE_CURVE('',#769,#874,#897,.T.);
#897 = LINE('',#898,#899);
#898 = CARTESIAN_POINT('',(64.,33.1974,-1.));
#899 = VECTOR('',#900,1.);
#900 = DIRECTION('',(1.,0.,0.));
#901 = ORIENTED_EDGE('',*,*,#881,.T.);
#902 = ORIENTED_EDGE('',*,*,#613,.F.);
#903 = ORIENTED_EDGE('',*,*,#776,.F.);
#904 = PLANE('',#905);
#905 = AXIS2_PLACEMENT_3D('',#906,#907,#908);
#906 = CARTESIAN_POINT('',(64.,33.1974,-1.));
#907 = DIRECTION('',(0.,0.,1.));
#908 = DIRECTION('',(0.,1.,0.));
#909 = ADVANCED_FACE('',(#910),#921,.F.);
#910 = FACE_BOUND('',#911,.F.);
#911 = EDGE_LOOP('',(#912,#913,#914,#920));
#912 = ORIENTED_EDGE('',*,*,#653,.T.);
#913 = ORIENTED_EDGE('',*,*,#793,.T.);
#914 = ORIENTED_EDGE('',*,*,#915,.F.);
#915 = EDGE_CURVE('',#689,#794,#916,.T.);
#916 = LINE('',#917,#918);
#917 = CARTESIAN_POINT('',(64.,76.1225,34.5679));
#918 = VECTOR('',#919,1.);
#919 = DIRECTION('',(1.,0.,0.));
#920 = ORIENTED_EDGE('',*,*,#688,.F.);
#921 = PLANE('',#922);
#922 = AXIS2_PLACEMENT_3D('',#923,#924,#925);
#923 = CARTESIAN_POINT('',(64.,79.0569,33.9442));
#924 = DIRECTION('',(0.,-0.207903406756,-0.978149361529));
#925 = DIRECTION('',(0.,-0.978149361529,0.207903406756));
#926 = ADVANCED_FACE('',(#927),#946,.F.);
#927 = FACE_BOUND('',#928,.F.);
#928 = EDGE_LOOP('',(#929,#930,#938,#945));
#929 = ORIENTED_EDGE('',*,*,#669,.F.);
#930 = ORIENTED_EDGE('',*,*,#931,.F.);
#931 = EDGE_CURVE('',#932,#670,#934,.T.);
#932 = VERTEX_POINT('',#933);
#933 = CARTESIAN_POINT('',(81.8,70.982296795903,10.385562690486));
#934 = LINE('',#935,#936);
#935 = CARTESIAN_POINT('',(81.8,70.589825404781,10.468985149941));
#936 = VECTOR('',#937,1.);
#937 = DIRECTION('',(0.,0.978147555115,-0.207911905437));
#938 = ORIENTED_EDGE('',*,*,#939,.T.);
#939 = EDGE_CURVE('',#932,#932,#940,.T.);
#940 = ELLIPSE('',#941,1.700000000009,1.7);
#941 = AXIS2_PLACEMENT_3D('',#942,#943,#944);
#942 = CARTESIAN_POINT('',(83.5,70.982296795903,10.385562690486));
#943 = DIRECTION('',(0.,0.978146870814,-0.207915124791));
#944 = DIRECTION('',(0.,0.207915124791,0.978146870814));
#945 = ORIENTED_EDGE('',*,*,#931,.T.);
#946 = CYLINDRICAL_SURFACE('',#947,1.7);
#947 = AXIS2_PLACEMENT_3D('',#948,#949,#950);
#948 = CARTESIAN_POINT('',(83.5,70.589825404781,10.468985149941));
#949 = DIRECTION('',(0.,0.978147555115,-0.207911905437));
#950 = DIRECTION('',(-1.,0.,0.));
#951 = ADVANCED_FACE('',(#952,#963),#966,.F.);
#952 = FACE_BOUND('',#953,.F.);
#953 = EDGE_LOOP('',(#954,#955,#956,#962));
#954 = ORIENTED_EDGE('',*,*,#915,.T.);
#955 = ORIENTED_EDGE('',*,*,#801,.T.);
#956 = ORIENTED_EDGE('',*,*,#957,.F.);
#957 = EDGE_CURVE('',#697,#802,#958,.T.);
#958 = LINE('',#959,#960);
#959 = CARTESIAN_POINT('',(64.,69.5187,3.5));
#960 = VECTOR('',#961,1.);
#961 = DIRECTION('',(1.,0.,0.));
#962 = ORIENTED_EDGE('',*,*,#696,.F.);
#963 = FACE_BOUND('',#964,.F.);
#964 = EDGE_LOOP('',(#965));
#965 = ORIENTED_EDGE('',*,*,#939,.F.);
#966 = PLANE('',#967);
#967 = AXIS2_PLACEMENT_3D('',#968,#969,#970);
#968 = CARTESIAN_POINT('',(64.,76.1225,34.5679));
#969 = DIRECTION('',(0.,0.978146870814,-0.207915124791));
#970 = DIRECTION('',(0.,-0.207915124791,-0.978146870814));
#971 = ADVANCED_FACE('',(#972),#983,.F.);
#972 = FACE_BOUND('',#973,.F.);
#973 = EDGE_LOOP('',(#974,#975,#976,#982));
#974 = ORIENTED_EDGE('',*,*,#957,.T.);
#975 = ORIENTED_EDGE('',*,*,#809,.T.);
#976 = ORIENTED_EDGE('',*,*,#977,.F.);
#977 = EDGE_CURVE('',#705,#810,#978,.T.);
#978 = LINE('',#979,#980);
#979 = CARTESIAN_POINT('',(64.,69.5188,3.49998));
#980 = VECTOR('',#981,1.);
#981 = DIRECTION('',(1.,0.,0.));
#982 = ORIENTED_EDGE('',*,*,#704,.F.);
#983 = PLANE('',#984);
#984 = AXIS2_PLACEMENT_3D('',#985,#986,#987);
#985 = CARTESIAN_POINT('',(64.,69.5187,3.5));
#986 = DIRECTION('',(0.,0.196116135133,0.980580675692));
#987 = DIRECTION('',(0.,0.980580675692,-0.196116135133));
#988 = ADVANCED_FACE('',(#989),#1000,.F.);
#989 = FACE_BOUND('',#990,.F.);
#990 = EDGE_LOOP('',(#991,#992,#993,#999));
#991 = ORIENTED_EDGE('',*,*,#977,.T.);
#992 = ORIENTED_EDGE('',*,*,#817,.T.);
#993 = ORIENTED_EDGE('',*,*,#994,.F.);
#994 = EDGE_CURVE('',#713,#818,#995,.T.);
#995 = LINE('',#996,#997);
#996 = CARTESIAN_POINT('',(64.,69.1691,1.85472));
#997 = VECTOR('',#998,1.);
#998 = DIRECTION('',(1.,0.,0.));
#999 = ORIENTED_EDGE('',*,*,#712,.F.);
#1000 = PLANE('',#1001);
#1001 = AXIS2_PLACEMENT_3D('',#1002,#1003,#1004);
#1002 = CARTESIAN_POINT('',(64.,69.5188,3.49998));
#1003 = DIRECTION('',(0.,0.978148907563,-0.207905542574));
#1004 = DIRECTION('',(0.,-0.207905542574,-0.978148907563));
#1005 = ADVANCED_FACE('',(#1006),#1017,.F.);
#1006 = FACE_BOUND('',#1007,.F.);
#1007 = EDGE_LOOP('',(#1008,#1009,#1010,#1016));
#1008 = ORIENTED_EDGE('',*,*,#994,.T.);
#1009 = ORIENTED_EDGE('',*,*,#825,.T.);
#1010 = ORIENTED_EDGE('',*,*,#1011,.F.);
#1011 = EDGE_CURVE('',#721,#826,#1012,.T.);
#1012 = LINE('',#1013,#1014);
#1013 = CARTESIAN_POINT('',(64.,68.5822,1.97946));
#1014 = VECTOR('',#1015,1.);
#1015 = DIRECTION('',(1.,0.,0.));
#1016 = ORIENTED_EDGE('',*,*,#720,.F.);
#1017 = PLANE('',#1018);
#1018 = AXIS2_PLACEMENT_3D('',#1019,#1020,#1021);
#1019 = CARTESIAN_POINT('',(64.,69.1691,1.85472));
#1020 = DIRECTION('',(0.,-0.207896628175,-0.978150802276));
#1021 = DIRECTION('',(0.,-0.978150802276,0.207896628175));
#1022 = ADVANCED_FACE('',(#1023),#1034,.F.);
#1023 = FACE_BOUND('',#1024,.F.);
#1024 = EDGE_LOOP('',(#1025,#1026,#1027,#1033));
#1025 = ORIENTED_EDGE('',*,*,#1011,.T.);
#1026 = ORIENTED_EDGE('',*,*,#833,.T.);
#1027 = ORIENTED_EDGE('',*,*,#1028,.F.);
#1028 = EDGE_CURVE('',#729,#834,#1029,.T.);
#1029 = LINE('',#1030,#1031);
#1030 = CARTESIAN_POINT('',(64.,68.6892,2.48308));
#1031 = VECTOR('',#1032,1.);
#1032 = DIRECTION('',(1.,0.,0.));
#1033 = ORIENTED_EDGE('',*,*,#728,.F.);
#1034 = PLANE('',#1035);
#1035 = AXIS2_PLACEMENT_3D('',#1036,#1037,#1038);
#1036 = CARTESIAN_POINT('',(64.,68.5822,1.97946));
#1037 = DIRECTION('',(0.,-0.978166452095,0.207822982356));
#1038 = DIRECTION('',(0.,0.207822982356,0.978166452095));
#1039 = ADVANCED_FACE('',(#1040),#1051,.F.);
#1040 = FACE_BOUND('',#1041,.F.);
#1041 = EDGE_LOOP('',(#1042,#1043,#1044,#1050));
#1042 = ORIENTED_EDGE('',*,*,#1028,.T.);
#1043 = ORIENTED_EDGE('',*,*,#841,.T.);
#1044 = ORIENTED_EDGE('',*,*,#1045,.F.);
#1045 = EDGE_CURVE('',#737,#842,#1046,.T.);
#1046 = LINE('',#1047,#1048);
#1047 = CARTESIAN_POINT('',(64.,38.5,8.89999));
#1048 = VECTOR('',#1049,1.);
#1049 = DIRECTION('',(1.,0.,0.));
#1050 = ORIENTED_EDGE('',*,*,#736,.F.);
#1051 = PLANE('',#1052);
#1052 = AXIS2_PLACEMENT_3D('',#1053,#1054,#1055);
#1053 = CARTESIAN_POINT('',(64.,68.6892,2.48308));
#1054 = DIRECTION('',(0.,-0.207911611719,-0.978147617547));
#1055 = DIRECTION('',(0.,-0.978147617547,0.207911611719));
#1056 = ADVANCED_FACE('',(#1057),#1068,.F.);
#1057 = FACE_BOUND('',#1058,.F.);
#1058 = EDGE_LOOP('',(#1059,#1060,#1061,#1067));
#1059 = ORIENTED_EDGE('',*,*,#1045,.T.);
#1060 = ORIENTED_EDGE('',*,*,#849,.T.);
#1061 = ORIENTED_EDGE('',*,*,#1062,.F.);
#1062 = EDGE_CURVE('',#745,#850,#1063,.T.);
#1063 = LINE('',#1064,#1065);
#1064 = CARTESIAN_POINT('',(64.,38.39,10.));
#1065 = VECTOR('',#1066,1.);
#1066 = DIRECTION('',(1.,0.,0.));
#1067 = ORIENTED_EDGE('',*,*,#744,.F.);
#1068 = PLANE('',#1069);
#1069 = AXIS2_PLACEMENT_3D('',#1070,#1071,#1072);
#1070 = CARTESIAN_POINT('',(64.,38.5,8.89999));
#1071 = DIRECTION('',(0.,-0.995037279771,-9.950282340599E-02));
#1072 = DIRECTION('',(0.,-9.950282340599E-02,0.995037279771));
#1073 = ADVANCED_FACE('',(#1074),#1085,.F.);
#1074 = FACE_BOUND('',#1075,.F.);
#1075 = EDGE_LOOP('',(#1076,#1077,#1078,#1084));
#1076 = ORIENTED_EDGE('',*,*,#1062,.T.);
#1077 = ORIENTED_EDGE('',*,*,#857,.T.);
#1078 = ORIENTED_EDGE('',*,*,#1079,.F.);
#1079 = EDGE_CURVE('',#753,#858,#1080,.T.);
#1080 = LINE('',#1081,#1082);
#1081 = CARTESIAN_POINT('',(64.,35.3229,10.));
#1082 = VECTOR('',#1083,1.);
#1083 = DIRECTION('',(1.,0.,0.));
#1084 = ORIENTED_EDGE('',*,*,#752,.F.);
#1085 = PLANE('',#1086);
#1086 = AXIS2_PLACEMENT_3D('',#1087,#1088,#1089);
#1087 = CARTESIAN_POINT('',(64.,38.39,10.));
#1088 = DIRECTION('',(0.,0.,-1.));
#1089 = DIRECTION('',(0.,-1.,0.));
#1090 = ADVANCED_FACE('',(#1091),#1102,.F.);
#1091 = FACE_BOUND('',#1092,.F.);
#1092 = EDGE_LOOP('',(#1093,#1094,#1095,#1101));
#1093 = ORIENTED_EDGE('',*,*,#1079,.T.);
#1094 = ORIENTED_EDGE('',*,*,#865,.T.);
#1095 = ORIENTED_EDGE('',*,*,#1096,.F.);
#1096 = EDGE_CURVE('',#761,#866,#1097,.T.);
#1097 = LINE('',#1098,#1099);
#1098 = CARTESIAN_POINT('',(64.,33.1974,0.));
#1099 = VECTOR('',#1100,1.);
#1100 = DIRECTION('',(1.,0.,0.));
#1101 = ORIENTED_EDGE('',*,*,#760,.F.);
#1102 = PLANE('',#1103);
#1103 = AXIS2_PLACEMENT_3D('',#1104,#1105,#1106);
#1104 = CARTESIAN_POINT('',(64.,35.3229,10.));
#1105 = DIRECTION('',(0.,0.978148905991,-0.207905549968));
#1106 = DIRECTION('',(0.,-0.207905549968,-0.978148905991));
#1107 = ADVANCED_FACE('',(#1108),#1114,.F.);
#1108 = FACE_BOUND('',#1109,.F.);
#1109 = EDGE_LOOP('',(#1110,#1111,#1112,#1113));
#1110 = ORIENTED_EDGE('',*,*,#1096,.T.);
#1111 = ORIENTED_EDGE('',*,*,#873,.T.);
#1112 = ORIENTED_EDGE('',*,*,#896,.F.);
#1113 = ORIENTED_EDGE('',*,*,#768,.F.);
#1114 = PLANE('',#1115);
#1115 = AXIS2_PLACEMENT_3D('',#1116,#1117,#1118);
#1116 = CARTESIAN_POINT('',(64.,33.1974,0.));
#1117 = DIRECTION('',(0.,1.,0.));
#1118 = DIRECTION('',(0.,0.,-1.));
#1119 = ( GEOMETRIC_REPRESENTATION_CONTEXT(3) 
GLOBAL_UNCERTAINTY_ASSIGNED_CONTEXT((#1123)) 
GLOBAL_UNIT_ASSIGNED_CONTEXT((#1120,#1121,#1122)) REPRESENTATION_CONTEXT
('Context #1','3D Context with UNIT and UNCERTAINTY') );
#1120 = ( LENGTH_UNIT() NAMED_UNIT(*) SI_UNIT(.MILLI.,.METRE.) );
#1121 = ( NAMED_UNIT(*) PLANE_ANGLE_UNIT() SI_UNIT($,.RADIAN.) );
#1122 = ( NAMED_UNIT(*) SI_UNIT($,.STERADIAN.) SOLID_ANGLE_UNIT() );
#1123 = UNCERTAINTY_MEASURE_WITH_UNIT(LENGTH_MEASURE(1.E-07),#1120,
  'distance_accuracy_value','confusion accuracy');
#1124 = PRODUCT_RELATED_PRODUCT_CATEGORY('part',$,(#7));
ENDSEC;
END-ISO-10303-21;
