solid OpenSCAD_Model
  facet normal -1 0 0
    outer loop
      vertex -60 69.5525 4.6942
      vertex -60 104 8
      vertex -60 104 0
    endloop
  endfacet
  facet normal -1 -0 0
    outer loop
      vertex -60 104 8
      vertex -60 69.5525 4.6942
      vertex -60 84 34
    endloop
  endfacet
  facet normal -1 -0 0
    outer loop
      vertex -60 84 34
      vertex -60 69.5525 4.6942
      vertex -60 75.7817 34
    endloop
  endfacet
  facet normal -1 0 0
    outer loop
      vertex -60 38.4475 11.3058
      vertex -60 24 13
      vertex -60 32 13
    endloop
  endfacet
  facet normal -1 0 0
    outer loop
      vertex -60 0 0
      vertex -60 38.4475 11.3058
      vertex -60 69.5525 4.6942
    endloop
  endfacet
  facet normal -1 0 0
    outer loop
      vertex -60 0 0
      vertex -60 69.5525 4.6942
      vertex -60 104 0
    endloop
  endfacet
  facet normal -1 -0 0
    outer loop
      vertex -60 38.4475 11.3058
      vertex -60 0 0
      vertex -60 24 13
    endloop
  endfacet
  facet normal -1 0 0
    outer loop
      vertex -60 24 13
      vertex -60 0 0
      vertex -60 0 5
    endloop
  endfacet
  facet normal -1 0 0
    outer loop
      vertex -60 40.0986 19.074
      vertex -60 38.4475 11.3058
      vertex -60 32 13
    endloop
  endfacet
  facet normal 1 0 0
    outer loop
      vertex 60 40.0986 19.074
      vertex 60 32 13
      vertex 60 38.4475 11.3058
    endloop
  endfacet
  facet normal 1 0 0
    outer loop
      vertex 60 69.5525 4.6942
      vertex 60 104 8
      vertex 60 84 34
    endloop
  endfacet
  facet normal 1 0 0
    outer loop
      vertex 60 69.5525 4.6942
      vertex 60 84 34
      vertex 60 75.7817 34
    endloop
  endfacet
  facet normal 1 0 0
    outer loop
      vertex 60 104 8
      vertex 60 69.5525 4.6942
      vertex 60 104 0
    endloop
  endfacet
  facet normal 1 -0 0
    outer loop
      vertex 60 24 13
      vertex 60 38.4475 11.3058
      vertex 60 32 13
    endloop
  endfacet
  facet normal 1 0 0
    outer loop
      vertex 60 0 0
      vertex 60 38.4475 11.3058
      vertex 60 24 13
    endloop
  endfacet
  facet normal 1 0 0
    outer loop
      vertex 60 0 0
      vertex 60 24 13
      vertex 60 0 5
    endloop
  endfacet
  facet normal 1 0 0
    outer loop
      vertex 60 38.4475 11.3058
      vertex 60 0 0
      vertex 60 69.5525 4.6942
    endloop
  endfacet
  facet normal 1 0 0
    outer loop
      vertex 60 69.5525 4.6942
      vertex 60 0 0
      vertex 60 104 0
    endloop
  endfacet
  facet normal 0 0.792624 0.609711
    outer loop
      vertex 60 104 8
      vertex -60 84 34
      vertex 60 84 34
    endloop
  endfacet
  facet normal 0 0.792624 0.609711
    outer loop
      vertex -60 84 34
      vertex 60 104 8
      vertex -60 104 8
    endloop
  endfacet
  facet normal -0 0 1
    outer loop
      vertex -60 84 34
      vertex 60 75.7817 34
      vertex 60 84 34
    endloop
  endfacet
  facet normal 0 0 1
    outer loop
      vertex 60 75.7817 34
      vertex -60 84 34
      vertex -60 75.7817 34
    endloop
  endfacet
  facet normal 0 -0.600003 0.799998
    outer loop
      vertex -60 40.0986 19.074
      vertex 60 32 13
      vertex 60 40.0986 19.074
    endloop
  endfacet
  facet normal 0 -0.600003 0.799998
    outer loop
      vertex 60 32 13
      vertex -60 40.0986 19.074
      vertex -60 32 13
    endloop
  endfacet
  facet normal -0 0 1
    outer loop
      vertex -60 32 13
      vertex 60 24 13
      vertex 60 32 13
    endloop
  endfacet
  facet normal 0 0 1
    outer loop
      vertex 60 24 13
      vertex -60 32 13
      vertex -60 24 13
    endloop
  endfacet
  facet normal 0 -0.316228 0.948683
    outer loop
      vertex -60 24 13
      vertex 60 0 5
      vertex 60 24 13
    endloop
  endfacet
  facet normal 0 -0.316228 0.948683
    outer loop
      vertex 60 0 5
      vertex -60 24 13
      vertex -60 0 5
    endloop
  endfacet
  facet normal 0 -1 0
    outer loop
      vertex -60 0 0
      vertex 60 0 5
      vertex -60 0 5
    endloop
  endfacet
  facet normal 0 -1 -0
    outer loop
      vertex 60 0 5
      vertex -60 0 0
      vertex 60 0 0
    endloop
  endfacet
  facet normal 0 0 -1
    outer loop
      vertex -60 0 0
      vertex 60 104 0
      vertex 60 0 0
    endloop
  endfacet
  facet normal -0 0 -1
    outer loop
      vertex 60 104 0
      vertex -60 0 0
      vertex -60 104 0
    endloop
  endfacet
  facet normal 0 1 -0
    outer loop
      vertex 60 104 0
      vertex -60 104 8
      vertex 60 104 8
    endloop
  endfacet
  facet normal 0 1 0
    outer loop
      vertex -60 104 8
      vertex 60 104 0
      vertex -60 104 0
    endloop
  endfacet
  facet normal -0 0.207913 0.978147
    outer loop
      vertex -60 69.5525 4.6942
      vertex 60 38.4475 11.3058
      vertex 60 69.5525 4.6942
    endloop
  endfacet
  facet normal 0 0.207913 0.978147
    outer loop
      vertex 60 38.4475 11.3058
      vertex -60 69.5525 4.6942
      vertex -60 38.4475 11.3058
    endloop
  endfacet
  facet normal 0 -0.978147 0.207914
    outer loop
      vertex -60 69.5525 4.6942
      vertex 60 75.7817 34
      vertex -60 75.7817 34
    endloop
  endfacet
  facet normal 0 -0.978147 0.207914
    outer loop
      vertex 60 75.7817 34
      vertex -60 69.5525 4.6942
      vertex 60 69.5525 4.6942
    endloop
  endfacet
  facet normal 0 0.97815 -0.207902
    outer loop
      vertex 60 38.4475 11.3058
      vertex -60 40.0986 19.074
      vertex 60 40.0986 19.074
    endloop
  endfacet
  facet normal 0 0.97815 -0.207902
    outer loop
      vertex -60 40.0986 19.074
      vertex 60 38.4475 11.3058
      vertex -60 38.4475 11.3058
    endloop
  endfacet
endsolid OpenSCAD_Model
