solid OpenSCAD_Model
  facet normal -1 0 -0
    outer loop
      vertex -60 70.8711 10.8975
      vertex -60 104 7
      vertex -60 69.5525 4.6942
    endloop
  endfacet
  facet normal -1 -0 0
    outer loop
      vertex -60 69.5525 4.6942
      vertex -60 0 0
      vertex -60 38.4474 11.3058
    endloop
  endfacet
  facet normal -1 0 -0
    outer loop
      vertex -60 104 7
      vertex -60 104 0
      vertex -60 69.5525 4.6942
    endloop
  endfacet
  facet normal -1 0 0
    outer loop
      vertex -60 0 0
      vertex -60 0 5
      vertex -60 24 13
    endloop
  endfacet
  facet normal -1 0 0
    outer loop
      vertex -60 40.0986 19.074
      vertex -60 38.4474 11.3058
      vertex -60 32 13
    endloop
  endfacet
  facet normal -1 -0 -0
    outer loop
      vertex -60 32 13
      vertex -60 38.4474 11.3058
      vertex -60 24 13
    endloop
  endfacet
  facet normal -1 -0 0
    outer loop
      vertex -60 38.4474 11.3058
      vertex -60 0 0
      vertex -60 24 13
    endloop
  endfacet
  facet normal -1 0 -0
    outer loop
      vertex -60 69.5525 4.6942
      vertex -60 104 0
      vertex -60 0 0
    endloop
  endfacet
  facet normal 1 0 0
    outer loop
      vertex 60 69.5525 4.6942
      vertex 60 104 7
      vertex 60 70.8711 10.8975
    endloop
  endfacet
  facet normal 1 0 0
    outer loop
      vertex 60 38.4474 11.3058
      vertex 60 0 0
      vertex 60 69.5525 4.6942
    endloop
  endfacet
  facet normal 1 -0 0
    outer loop
      vertex 60 69.5525 4.6942
      vertex 60 104 0
      vertex 60 104 7
    endloop
  endfacet
  facet normal 1 0 0
    outer loop
      vertex 60 24 13
      vertex 60 0 5
      vertex 60 0 0
    endloop
  endfacet
  facet normal 1 -0 0
    outer loop
      vertex 60 32 13
      vertex 60 38.4474 11.3058
      vertex 60 40.0986 19.074
    endloop
  endfacet
  facet normal 1 -0 0
    outer loop
      vertex 60 24 13
      vertex 60 38.4474 11.3058
      vertex 60 32 13
    endloop
  endfacet
  facet normal 1 0 0
    outer loop
      vertex 60 24 13
      vertex 60 0 0
      vertex 60 38.4474 11.3058
    endloop
  endfacet
  facet normal 1 0 0
    outer loop
      vertex 60 0 0
      vertex 60 104 0
      vertex 60 69.5525 4.6942
    endloop
  endfacet
  facet normal 0 0.116841 0.993151
    outer loop
      vertex -60 70.8711 10.8975
      vertex 60 104 7
      vertex -60 104 7
    endloop
  endfacet
  facet normal -0 0.116841 0.993151
    outer loop
      vertex -60 70.8711 10.8975
      vertex 60 70.8711 10.8975
      vertex 60 104 7
    endloop
  endfacet
  facet normal 0 -0.978146 0.207919
    outer loop
      vertex -60 69.5525 4.6942
      vertex 60 70.8711 10.8975
      vertex -60 70.8711 10.8975
    endloop
  endfacet
  facet normal 0 -0.978146 0.207919
    outer loop
      vertex -60 69.5525 4.6942
      vertex 60 69.5525 4.6942
      vertex 60 70.8711 10.8975
    endloop
  endfacet
  facet normal 0 0.207912 0.978148
    outer loop
      vertex -60 38.4474 11.3058
      vertex 60 69.5525 4.6942
      vertex -60 69.5525 4.6942
    endloop
  endfacet
  facet normal -0 0.207912 0.978148
    outer loop
      vertex -60 38.4474 11.3058
      vertex 60 38.4474 11.3058
      vertex 60 69.5525 4.6942
    endloop
  endfacet
  facet normal 0 0.978147 -0.207914
    outer loop
      vertex -60 40.0986 19.074
      vertex 60 38.4474 11.3058
      vertex -60 38.4474 11.3058
    endloop
  endfacet
  facet normal 0 0.978147 -0.207914
    outer loop
      vertex -60 40.0986 19.074
      vertex 60 40.0986 19.074
      vertex 60 38.4474 11.3058
    endloop
  endfacet
  facet normal 0 -0.600003 0.799998
    outer loop
      vertex -60 32 13
      vertex 60 40.0986 19.074
      vertex -60 40.0986 19.074
    endloop
  endfacet
  facet normal 0 -0.600003 0.799998
    outer loop
      vertex -60 32 13
      vertex 60 32 13
      vertex 60 40.0986 19.074
    endloop
  endfacet
  facet normal 0 0 1
    outer loop
      vertex -60 24 13
      vertex 60 32 13
      vertex -60 32 13
    endloop
  endfacet
  facet normal 0 0 1
    outer loop
      vertex -60 24 13
      vertex 60 24 13
      vertex 60 32 13
    endloop
  endfacet
  facet normal 0 -0.316228 0.948683
    outer loop
      vertex -60 0 5
      vertex 60 24 13
      vertex -60 24 13
    endloop
  endfacet
  facet normal 0 -0.316228 0.948683
    outer loop
      vertex -60 0 5
      vertex 60 0 5
      vertex 60 24 13
    endloop
  endfacet
  facet normal 0 -1 0
    outer loop
      vertex -60 0 0
      vertex 60 0 5
      vertex -60 0 5
    endloop
  endfacet
  facet normal 0 -1 0
    outer loop
      vertex -60 0 0
      vertex 60 0 0
      vertex 60 0 5
    endloop
  endfacet
  facet normal 0 0 -1
    outer loop
      vertex -60 104 0
      vertex 60 0 0
      vertex -60 0 0
    endloop
  endfacet
  facet normal 0 0 -1
    outer loop
      vertex -60 104 0
      vertex 60 104 0
      vertex 60 0 0
    endloop
  endfacet
  facet normal 0 1 0
    outer loop
      vertex -60 104 7
      vertex 60 104 0
      vertex -60 104 0
    endloop
  endfacet
  facet normal -0 1 0
    outer loop
      vertex -60 104 7
      vertex 60 104 7
      vertex 60 104 0
    endloop
  endfacet
endsolid OpenSCAD_Model
